<svg width="1200" height="800" viewBox="0 0 1200 800" fill="none" xmlns="http://www.w3.org/2000/svg">
  <rect width="1200" height="800" rx="40" fill="#F8FAFC"/>
  <rect x="56" y="56" width="1088" height="688" rx="32" fill="url(#a)"/>
  <circle cx="974" cy="182" r="102" fill="#AEEFF9" fill-opacity=".34"/>
  <rect x="316" y="136" width="352" height="532" rx="78" fill="#EAF8FC" stroke="#0A2540" stroke-width="24"/>
  <rect x="402" y="232" width="178" height="248" rx="42" fill="#18C1E0"/>
  <circle cx="492" cy="548" r="22" fill="#0A2540"/>
  <path d="M748 256H916V336H748V256Z" fill="#0A2540"/>
  <path d="M916 296H1000V530C1000 568 969 599 931 599H748V519H900V296H916Z" fill="#DDF5FB"/>
  <path d="M748 519V599" stroke="#0A2540" stroke-width="24" stroke-linecap="round"/>
  <path d="M788 256V214C788 176 819 145 857 145C895 145 926 176 926 214V256" stroke="#0A2540" stroke-width="24" stroke-linecap="round"/>
  <text x="140" y="670" fill="#0A2540" font-family="Arial, sans-serif" font-size="48" font-weight="700">Установка бойлера</text>
  <defs>
    <linearGradient id="a" x1="96" y1="110" x2="1094" y2="710" gradientUnits="userSpaceOnUse">
      <stop stop-color="#EEFBFE"/>
      <stop offset="1" stop-color="#D9EFF7"/>
    </linearGradient>
  </defs>
</svg>
