<svg width="1200" height="800" viewBox="0 0 1200 800" fill="none" xmlns="http://www.w3.org/2000/svg">
  <rect width="1200" height="800" rx="40" fill="#F8FAFC"/>
  <rect x="56" y="56" width="1088" height="688" rx="32" fill="url(#a)"/>
  <circle cx="250" cy="170" r="100" fill="#FFDFC4" fill-opacity=".5"/>
  <circle cx="1020" cy="620" r="130" fill="#95E8F6" fill-opacity=".18"/>
  <rect x="212" y="268" width="760" height="250" rx="34" fill="#0A2540"/>
  <rect x="266" y="204" width="58" height="378" rx="22" fill="#EAF8FC"/>
  <rect x="364" y="204" width="58" height="378" rx="22" fill="#EAF8FC"/>
  <rect x="462" y="204" width="58" height="378" rx="22" fill="#EAF8FC"/>
  <rect x="560" y="204" width="58" height="378" rx="22" fill="#EAF8FC"/>
  <rect x="658" y="204" width="58" height="378" rx="22" fill="#EAF8FC"/>
  <rect x="756" y="204" width="58" height="378" rx="22" fill="#EAF8FC"/>
  <rect x="854" y="204" width="58" height="378" rx="22" fill="#EAF8FC"/>
  <path d="M182 366H116" stroke="#18C1E0" stroke-width="24" stroke-linecap="round"/>
  <path d="M1030 366H964" stroke="#18C1E0" stroke-width="24" stroke-linecap="round"/>
  <path d="M980 182C1004 215 1036 226 1076 220" stroke="#FF7A1A" stroke-width="18" stroke-linecap="round"/>
  <path d="M932 136C956 169 988 180 1028 174" stroke="#FF7A1A" stroke-width="18" stroke-linecap="round"/>
  <text x="140" y="670" fill="#0A2540" font-family="Arial, sans-serif" font-size="48" font-weight="700">Радиатор и отопление</text>
  <defs>
    <linearGradient id="a" x1="96" y1="110" x2="1094" y2="710" gradientUnits="userSpaceOnUse">
      <stop stop-color="#FFF7EE"/>
      <stop offset="1" stop-color="#E4F6FB"/>
    </linearGradient>
  </defs>
</svg>
