<svg width="1200" height="800" viewBox="0 0 1200 800" fill="none" xmlns="http://www.w3.org/2000/svg">
  <rect width="1200" height="800" rx="40" fill="#F8FAFC"/>
  <rect x="56" y="56" width="1088" height="688" rx="32" fill="url(#a)"/>
  <circle cx="980" cy="170" r="98" fill="#A1EDF9" fill-opacity=".44"/>
  <rect x="238" y="140" width="448" height="520" rx="42" fill="#EAF8FC" stroke="#0A2540" stroke-width="24"/>
  <rect x="280" y="182" width="364" height="78" rx="20" fill="#0A2540"/>
  <circle cx="338" cy="221" r="14" fill="#18C1E0"/>
  <circle cx="390" cy="221" r="14" fill="#18C1E0"/>
  <circle cx="462" cy="420" r="148" fill="#18C1E0"/>
  <circle cx="462" cy="420" r="104" fill="#DDF6FB"/>
  <path d="M804 246H936C970 246 998 274 998 308V524C998 558 970 586 936 586H804C770 586 742 558 742 524V308C742 274 770 246 804 246Z" fill="#0A2540"/>
  <path d="M870 246V182C870 157 891 136 916 136C941 136 962 157 962 182V246" stroke="#18C1E0" stroke-width="24" stroke-linecap="round"/>
  <path d="M770 522C806 482 850 468 920 470" stroke="#A5ECF8" stroke-width="16" stroke-linecap="round"/>
  <text x="140" y="670" fill="#0A2540" font-family="Arial, sans-serif" font-size="48" font-weight="700">Подключение техники</text>
  <defs>
    <linearGradient id="a" x1="96" y1="110" x2="1094" y2="710" gradientUnits="userSpaceOnUse">
      <stop stop-color="#EEF9FD"/>
      <stop offset="1" stop-color="#D8F0F8"/>
    </linearGradient>
  </defs>
</svg>
